<?xml version="1.0" standalone="no"?><svg xmlns="http://www.w3.org/2000/svg" viewBox="0 0 1440 320"><path fill="#f0f5f2" fill-opacity="1" d="M0,192L40,160C80,128,160,64,240,64C320,64,400,128,480,176C560,224,640,256,720,256C800,256,880,224,960,186.7C1040,149,1120,107,1200,106.7C1280,107,1360,149,1400,170.7L1440,192L1440,320L1400,320C1360,320,1280,320,1200,320C1120,320,1040,320,960,320C880,320,800,320,720,320C640,320,560,320,480,320C400,320,320,320,240,320C160,320,80,320,40,320L0,320Z"></path></svg>